<svg width="1080" height="1350" viewBox="0 0 1080 1350" fill="none" xmlns="http://www.w3.org/2000/svg">
<g clip-path="url(#clip)">
<g filter="url(#blurEdge)">
<rect x="206.8" y="21.8" width="666.5" height="418.5" rx="88.3" stroke="#5E0C03" stroke-width="46.5"/>
<rect x="206.8" y="465.8" width="666.5" height="418.5" rx="88.3" stroke="#5E0C03" stroke-width="46.5"/>
<rect x="206.8" y="909.8" width="666.5" height="418.5" rx="88.3" stroke="#5E0C03" stroke-width="46.5"/>
</g>
<g filter="url(#blurMatte)">
<path fill-rule="evenodd" clip-rule="evenodd" d="M-80 -80H1160V1430H-80ZM295.1 45H784.9A65.1 65.1 0 0 1 850 110.1V351.9A65.1 65.1 0 0 1 784.9 417H295.1A65.1 65.1 0 0 1 230 351.9V110.1A65.1 65.1 0 0 1 295.1 45ZM295.1 489H784.9A65.1 65.1 0 0 1 850 554.1V795.9A65.1 65.1 0 0 1 784.9 861H295.1A65.1 65.1 0 0 1 230 795.9V554.1A65.1 65.1 0 0 1 295.1 489ZM295.1 933H784.9A65.1 65.1 0 0 1 850 998.1V1239.9A65.1 65.1 0 0 1 784.9 1305H295.1A65.1 65.1 0 0 1 230 1239.9V998.1A65.1 65.1 0 0 1 295.1 933Z" fill="black"/>
</g>
</g>
<defs>
<filter id="blurEdge" x="-200" y="-200" width="1480" height="1750" filterUnits="userSpaceOnUse" color-interpolation-filters="sRGB">
<feFlood flood-opacity="0" result="BackgroundImageFix"/>
<feBlend mode="normal" in="SourceGraphic" in2="BackgroundImageFix" result="shape"/>
<feGaussianBlur stdDeviation="8.5" result="e1"/>
</filter>
<filter id="blurMatte" x="-200" y="-200" width="1480" height="1750" filterUnits="userSpaceOnUse" color-interpolation-filters="sRGB">
<feFlood flood-opacity="0" result="BackgroundImageFix"/>
<feBlend mode="normal" in="SourceGraphic" in2="BackgroundImageFix" result="shape"/>
<feGaussianBlur stdDeviation="7" result="e1"/>
</filter>
<clipPath id="clip"><rect width="1080" height="1350" fill="white"/></clipPath>
</defs>
</svg>
